<svg width="100" height="100" viewBox="0 0 100 100" fill="none" xmlns="http://www.w3.org/2000/svg">
  <path d="M0 0h100v100H0z" fill="none"/>
  <path d="M50 20c16.569 0 30 13.431 30 30 0 16.569-13.431 30-30 30-16.569 0-30-13.431-30-30 0-16.569 13.431-30 30-30z" stroke="#FF6B35" stroke-width="2" stroke-dasharray="4 4"/>
  <path d="M50 35c8.284 0 15 6.716 15 15s-6.716 15-15 15-15-6.716-15-15 6.716-15 15-15z" fill="#FFB563" fill-opacity="0.1"/>
  <path d="M20 20h10v10H20zM70 20h10v10H70zM20 70h10v10H20zM70 70h10v10H70z" stroke="#FF6B35" stroke-width="2"/>
</svg> 